<svg width="40" height="40" viewBox="0 0 40 40" fill="none" xmlns="http://www.w3.org/2000/svg">
<path d="M35.0003 23.3333L30.0003 18.3333H18.3337C17.8916 18.3333 17.4677 18.1577 17.1551 17.8452C16.8426 17.5326 16.667 17.1087 16.667 16.6667V6.66667C16.667 6.22464 16.8426 5.80072 17.1551 5.48816C17.4677 5.17559 17.8916 5 18.3337 5H33.3337C33.7757 5 34.1996 5.17559 34.5122 5.48816C34.8247 5.80072 35.0003 6.22464 35.0003 6.66667V23.3333Z" stroke="#6A3CE2" stroke-width="1.5" stroke-linecap="round" stroke-linejoin="round"/>
<path d="M23.3333 25V28.3333C23.3333 28.7754 23.1577 29.1993 22.8452 29.5118C22.5326 29.8244 22.1087 30 21.6667 30H10L5 35V18.3333C5 17.8913 5.17559 17.4674 5.48816 17.1548C5.80072 16.8423 6.22464 16.6667 6.66667 16.6667H10" stroke="#6A3CE2" stroke-width="1.5" stroke-linecap="round" stroke-linejoin="round"/>
</svg>
