<svg width="40" height="40" viewBox="0 0 40 40" fill="none" xmlns="http://www.w3.org/2000/svg">
<path d="M8.58579 33.5858C9.36684 34.3668 10.6332 34.3668 11.4142 33.5858L33.5858 11.4142C34.3668 10.6332 34.3668 9.36683 33.5858 8.58579L31.4142 6.41421C30.6332 5.63316 29.3668 5.63316 28.5858 6.41421L6.41421 28.5858C5.63316 29.3668 5.63317 30.6332 6.41421 31.4142L8.58579 33.5858Z" stroke="#6A3CE2" stroke-width="1.5" stroke-linecap="round" stroke-linejoin="round"/>
<path d="M25 10L30 15" stroke="#6A3CE2" stroke-width="1.5" stroke-linecap="round" stroke-linejoin="round"/>
<path d="M15.0003 5C15.0003 5.88405 15.3515 6.7319 15.9766 7.35702C16.6018 7.98214 17.4496 8.33333 18.3337 8.33333C17.4496 8.33333 16.6018 8.68452 15.9766 9.30964C15.3515 9.93477 15.0003 10.7826 15.0003 11.6667C15.0003 10.7826 14.6491 9.93477 14.024 9.30964C13.3989 8.68452 12.551 8.33333 11.667 8.33333C12.551 8.33333 13.3989 7.98214 14.024 7.35702C14.6491 6.7319 15.0003 5.88405 15.0003 5Z" stroke="#6A3CE2" stroke-width="1.5" stroke-linecap="round" stroke-linejoin="round"/>
<path d="M31.6663 21.6667C31.6663 22.5507 32.0175 23.3986 32.6427 24.0237C33.2678 24.6488 34.1156 25 34.9997 25C34.1156 25 33.2678 25.3512 32.6427 25.9763C32.0175 26.6015 31.6663 27.4493 31.6663 28.3334C31.6663 27.4493 31.3152 26.6015 30.69 25.9763C30.0649 25.3512 29.2171 25 28.333 25C29.2171 25 30.0649 24.6488 30.69 24.0237C31.3152 23.3986 31.6663 22.5507 31.6663 21.6667Z" stroke="#6A3CE2" stroke-width="1.5" stroke-linecap="round" stroke-linejoin="round"/>
</svg>
