<svg width="40" height="40" viewBox="0 0 40 40" fill="none" xmlns="http://www.w3.org/2000/svg">
<path d="M17.2083 7.195C17.9183 4.26833 22.0817 4.26833 22.7917 7.195C22.8982 7.63467 23.107 8.04296 23.4012 8.38667C23.6953 8.73037 24.0665 8.99976 24.4844 9.17291C24.9024 9.34606 25.3553 9.41808 25.8063 9.38311C26.2573 9.34814 26.6937 9.20717 27.08 8.97167C29.6517 7.405 32.5967 10.3483 31.03 12.9217C30.7948 13.3078 30.6541 13.7439 30.6192 14.1946C30.5843 14.6453 30.6563 15.0979 30.8292 15.5156C31.0022 15.9333 31.2712 16.3043 31.6145 16.5984C31.9579 16.8925 32.3657 17.1015 32.805 17.2083C35.7317 17.9183 35.7317 22.0817 32.805 22.7917C32.3653 22.8982 31.957 23.107 31.6133 23.4012C31.2696 23.6953 31.0002 24.0665 30.8271 24.4844C30.6539 24.9024 30.5819 25.3553 30.6169 25.8063C30.6519 26.2573 30.7928 26.6937 31.0283 27.08C32.595 29.6517 29.6517 32.5967 27.0783 31.03C26.6922 30.7948 26.2561 30.6541 25.8054 30.6192C25.3547 30.5843 24.9021 30.6563 24.4844 30.8292C24.0667 31.0022 23.6957 31.2712 23.4016 31.6145C23.1075 31.9579 22.8985 32.3657 22.7917 32.805C22.0817 35.7317 17.9183 35.7317 17.2083 32.805C17.1018 32.3653 16.893 31.957 16.5988 31.6133C16.3047 31.2696 15.9335 31.0002 15.5156 30.8271C15.0976 30.6539 14.6447 30.5819 14.1937 30.6169C13.7427 30.6519 13.3063 30.7928 12.92 31.0283C10.3483 32.595 7.40333 29.6517 8.97 27.0783C9.20517 26.6922 9.34592 26.2561 9.38081 25.8054C9.41569 25.3547 9.34374 24.9021 9.17079 24.4844C8.99783 24.0667 8.72877 23.6957 8.38545 23.4016C8.04214 23.1075 7.63427 22.8985 7.195 22.7917C4.26833 22.0817 4.26833 17.9183 7.195 17.2083C7.63467 17.1018 8.04296 16.893 8.38667 16.5988C8.73037 16.3047 8.99976 15.9335 9.17291 15.5156C9.34606 15.0976 9.41808 14.6447 9.38311 14.1937C9.34814 13.7427 9.20717 13.3063 8.97167 12.92C7.405 10.3483 10.3483 7.40333 12.9217 8.97C14.5883 9.98333 16.7483 9.08667 17.2083 7.195Z" stroke="#6A3CE2" stroke-width="1.5" stroke-linecap="round" stroke-linejoin="round"/>
<path d="M20 25C22.7614 25 25 22.7614 25 20C25 17.2386 22.7614 15 20 15C17.2386 15 15 17.2386 15 20C15 22.7614 17.2386 25 20 25Z" stroke="#6A3CE2" stroke-width="1.5" stroke-linecap="round" stroke-linejoin="round"/>
</svg>
