<svg width="40" height="40" viewBox="0 0 40 40" fill="none" xmlns="http://www.w3.org/2000/svg">
<path d="M21.667 15C21.667 14.558 21.8426 14.1341 22.1551 13.8215C22.4677 13.5089 22.8916 13.3333 23.3337 13.3333H33.3337C33.7757 13.3333 34.1996 13.5089 34.5122 13.8215C34.8247 14.1341 35.0003 14.558 35.0003 15V31.6667C35.0003 32.1087 34.8247 32.5326 34.5122 32.8452C34.1996 33.1578 33.7757 33.3333 33.3337 33.3333H23.3337C22.8916 33.3333 22.4677 33.1578 22.1551 32.8452C21.8426 32.5326 21.667 32.1087 21.667 31.6667V15Z" stroke="#6A3CE2" stroke-width="1.5" stroke-linecap="round" stroke-linejoin="round"/>
<path d="M30 13.3333V8.33332C30 7.8913 29.8244 7.46737 29.5118 7.15481C29.1993 6.84225 28.7754 6.66666 28.3333 6.66666H6.66667C6.22464 6.66666 5.80072 6.84225 5.48816 7.15481C5.17559 7.46737 5 7.8913 5 8.33332V28.3333C5 28.7754 5.17559 29.1993 5.48816 29.5118C5.80072 29.8244 6.22464 30 6.66667 30H21.6667" stroke="#6A3CE2" stroke-width="1.5" stroke-linecap="round" stroke-linejoin="round"/>
<path d="M26.667 15H30.0003" stroke="#6A3CE2" stroke-width="1.5" stroke-linecap="round" stroke-linejoin="round"/>
</svg>
