<svg width="20" height="20" viewBox="0 0 20 20" fill="none" xmlns="http://www.w3.org/2000/svg">
  <path d="M10 11.6667C11.3807 11.6667 12.5 10.5475 12.5 9.16675C12.5 7.78604 11.3807 6.66675 10 6.66675C8.61929 6.66675 7.5 7.78604 7.5 9.16675C7.5 10.5475 8.61929 11.6667 10 11.6667Z" stroke="#555D67" stroke-width="1.5" stroke-linecap="round" stroke-linejoin="round"/>
  <path d="M14.7142 13.8808L11.1783 17.4167C10.8658 17.7289 10.4422 17.9042 10.0004 17.9042C9.55869 17.9042 9.13503 17.7289 8.82251 17.4167L5.28585 13.8808C4.35353 12.9485 3.71863 11.7606 3.46142 10.4674C3.20421 9.17419 3.33625 7.83376 3.84085 6.61561C4.34544 5.39745 5.19993 4.35628 6.29625 3.62376C7.39257 2.89123 8.68149 2.50024 10 2.50024C11.3185 2.50024 12.6075 2.89123 13.7038 3.62376C14.8001 4.35628 15.6546 5.39745 16.1592 6.61561C16.6638 7.83376 16.7958 9.17419 16.5386 10.4674C16.2814 11.7606 15.6465 12.9485 14.7142 13.8808Z" stroke="#555D67" stroke-width="1.5" stroke-linecap="round" stroke-linejoin="round"/>
</svg>
